<?xml version="1.0" standalone="no"?>
<svg xmlns="http://www.w3.org/2000/svg" width="600" height="600" xmlns:xlink="http://www.w3.org/1999/xlink" viewBox="0 0 600 600"><defs><clipPath id="clip-path-background-color-39"><rect x="0" y="0" width="600" height="600"/></clipPath><clipPath id="clip-path-dot-color-39"><rect x="150" y="7" width="13" height="13" transform="rotate(0,156.5,13.5)"/><rect x="163" y="7" width="13" height="13" transform="rotate(0,169.5,13.5)"/><rect x="202" y="7" width="13" height="13" transform="rotate(0,208.5,13.5)"/><rect x="267" y="7" width="13" height="13" transform="rotate(0,273.5,13.5)"/><rect x="293" y="7" width="13" height="13" transform="rotate(0,299.5,13.5)"/><rect x="345" y="7" width="13" height="13" transform="rotate(0,351.5,13.5)"/><rect x="358" y="7" width="13" height="13" transform="rotate(0,364.5,13.5)"/><rect x="371" y="7" width="13" height="13" transform="rotate(0,377.5,13.5)"/><rect x="384" y="7" width="13" height="13" transform="rotate(0,390.5,13.5)"/><rect x="397" y="7" width="13" height="13" transform="rotate(0,403.5,13.5)"/><rect x="410" y="7" width="13" height="13" transform="rotate(0,416.5,13.5)"/><rect x="423" y="7" width="13" height="13" transform="rotate(0,429.5,13.5)"/><rect x="475" y="7" width="13" height="13" transform="rotate(0,481.5,13.5)"/><rect x="124" y="20" width="13" height="13" transform="rotate(0,130.5,26.5)"/><rect x="150" y="20" width="13" height="13" transform="rotate(0,156.5,26.5)"/><rect x="189" y="20" width="13" height="13" transform="rotate(0,195.5,26.5)"/><rect x="215" y="20" width="13" height="13" transform="rotate(0,221.5,26.5)"/><rect x="228" y="20" width="13" height="13" transform="rotate(0,234.5,26.5)"/><rect x="293" y="20" width="13" height="13" transform="rotate(0,299.5,26.5)"/><rect x="332" y="20" width="13" height="13" transform="rotate(0,338.5,26.5)"/><rect x="345" y="20" width="13" height="13" transform="rotate(0,351.5,26.5)"/><rect x="384" y="20" width="13" height="13" transform="rotate(0,390.5,26.5)"/><rect x="397" y="20" width="13" height="13" transform="rotate(0,403.5,26.5)"/><rect x="423" y="20" width="13" height="13" transform="rotate(0,429.5,26.5)"/><rect x="462" y="20" width="13" height="13" transform="rotate(0,468.5,26.5)"/><rect x="163" y="33" width="13" height="13" transform="rotate(0,169.5,39.5)"/><rect x="241" y="33" width="13" height="13" transform="rotate(0,247.5,39.5)"/><rect x="254" y="33" width="13" height="13" transform="rotate(0,260.5,39.5)"/><rect x="267" y="33" width="13" height="13" transform="rotate(0,273.5,39.5)"/><rect x="280" y="33" width="13" height="13" transform="rotate(0,286.5,39.5)"/><rect x="293" y="33" width="13" height="13" transform="rotate(0,299.5,39.5)"/><rect x="306" y="33" width="13" height="13" transform="rotate(0,312.5,39.5)"/><rect x="332" y="33" width="13" height="13" transform="rotate(0,338.5,39.5)"/><rect x="345" y="33" width="13" height="13" transform="rotate(0,351.5,39.5)"/><rect x="397" y="33" width="13" height="13" transform="rotate(0,403.5,39.5)"/><rect x="462" y="33" width="13" height="13" transform="rotate(0,468.5,39.5)"/><rect x="137" y="46" width="13" height="13" transform="rotate(0,143.5,52.5)"/><rect x="150" y="46" width="13" height="13" transform="rotate(0,156.5,52.5)"/><rect x="176" y="46" width="13" height="13" transform="rotate(0,182.5,52.5)"/><rect x="189" y="46" width="13" height="13" transform="rotate(0,195.5,52.5)"/><rect x="215" y="46" width="13" height="13" transform="rotate(0,221.5,52.5)"/><rect x="254" y="46" width="13" height="13" transform="rotate(0,260.5,52.5)"/><rect x="280" y="46" width="13" height="13" transform="rotate(0,286.5,52.5)"/><rect x="293" y="46" width="13" height="13" transform="rotate(0,299.5,52.5)"/><rect x="306" y="46" width="13" height="13" transform="rotate(0,312.5,52.5)"/><rect x="332" y="46" width="13" height="13" transform="rotate(0,338.5,52.5)"/><rect x="345" y="46" width="13" height="13" transform="rotate(0,351.5,52.5)"/><rect x="358" y="46" width="13" height="13" transform="rotate(0,364.5,52.5)"/><rect x="384" y="46" width="13" height="13" transform="rotate(0,390.5,52.5)"/><rect x="397" y="46" width="13" height="13" transform="rotate(0,403.5,52.5)"/><rect x="410" y="46" width="13" height="13" transform="rotate(0,416.5,52.5)"/><rect x="462" y="46" width="13" height="13" transform="rotate(0,468.5,52.5)"/><rect x="475" y="46" width="13" height="13" transform="rotate(0,481.5,52.5)"/><rect x="124" y="59" width="13" height="13" transform="rotate(0,130.5,65.5)"/><rect x="137" y="59" width="13" height="13" transform="rotate(0,143.5,65.5)"/><rect x="163" y="59" width="13" height="13" transform="rotate(0,169.5,65.5)"/><rect x="215" y="59" width="13" height="13" transform="rotate(0,221.5,65.5)"/><rect x="267" y="59" width="13" height="13" transform="rotate(0,273.5,65.5)"/><rect x="280" y="59" width="13" height="13" transform="rotate(0,286.5,65.5)"/><rect x="293" y="59" width="13" height="13" transform="rotate(0,299.5,65.5)"/><rect x="306" y="59" width="13" height="13" transform="rotate(0,312.5,65.5)"/><rect x="319" y="59" width="13" height="13" transform="rotate(0,325.5,65.5)"/><rect x="358" y="59" width="13" height="13" transform="rotate(0,364.5,65.5)"/><rect x="371" y="59" width="13" height="13" transform="rotate(0,377.5,65.5)"/><rect x="384" y="59" width="13" height="13" transform="rotate(0,390.5,65.5)"/><rect x="397" y="59" width="13" height="13" transform="rotate(0,403.5,65.5)"/><rect x="423" y="59" width="13" height="13" transform="rotate(0,429.5,65.5)"/><rect x="449" y="59" width="13" height="13" transform="rotate(0,455.5,65.5)"/><rect x="462" y="59" width="13" height="13" transform="rotate(0,468.5,65.5)"/><rect x="475" y="59" width="13" height="13" transform="rotate(0,481.5,65.5)"/><rect x="111" y="72" width="13" height="13" transform="rotate(0,117.5,78.5)"/><rect x="124" y="72" width="13" height="13" transform="rotate(0,130.5,78.5)"/><rect x="176" y="72" width="13" height="13" transform="rotate(0,182.5,78.5)"/><rect x="189" y="72" width="13" height="13" transform="rotate(0,195.5,78.5)"/><rect x="254" y="72" width="13" height="13" transform="rotate(0,260.5,78.5)"/><rect x="267" y="72" width="13" height="13" transform="rotate(0,273.5,78.5)"/><rect x="319" y="72" width="13" height="13" transform="rotate(0,325.5,78.5)"/><rect x="332" y="72" width="13" height="13" transform="rotate(0,338.5,78.5)"/><rect x="345" y="72" width="13" height="13" transform="rotate(0,351.5,78.5)"/><rect x="397" y="72" width="13" height="13" transform="rotate(0,403.5,78.5)"/><rect x="410" y="72" width="13" height="13" transform="rotate(0,416.5,78.5)"/><rect x="423" y="72" width="13" height="13" transform="rotate(0,429.5,78.5)"/><rect x="436" y="72" width="13" height="13" transform="rotate(0,442.5,78.5)"/><rect x="111" y="85" width="13" height="13" transform="rotate(0,117.5,91.5)"/><rect x="137" y="85" width="13" height="13" transform="rotate(0,143.5,91.5)"/><rect x="163" y="85" width="13" height="13" transform="rotate(0,169.5,91.5)"/><rect x="189" y="85" width="13" height="13" transform="rotate(0,195.5,91.5)"/><rect x="215" y="85" width="13" height="13" transform="rotate(0,221.5,91.5)"/><rect x="241" y="85" width="13" height="13" transform="rotate(0,247.5,91.5)"/><rect x="267" y="85" width="13" height="13" transform="rotate(0,273.5,91.5)"/><rect x="293" y="85" width="13" height="13" transform="rotate(0,299.5,91.5)"/><rect x="319" y="85" width="13" height="13" transform="rotate(0,325.5,91.5)"/><rect x="345" y="85" width="13" height="13" transform="rotate(0,351.5,91.5)"/><rect x="371" y="85" width="13" height="13" transform="rotate(0,377.5,91.5)"/><rect x="397" y="85" width="13" height="13" transform="rotate(0,403.5,91.5)"/><rect x="423" y="85" width="13" height="13" transform="rotate(0,429.5,91.5)"/><rect x="449" y="85" width="13" height="13" transform="rotate(0,455.5,91.5)"/><rect x="475" y="85" width="13" height="13" transform="rotate(0,481.5,91.5)"/><rect x="124" y="98" width="13" height="13" transform="rotate(0,130.5,104.5)"/><rect x="137" y="98" width="13" height="13" transform="rotate(0,143.5,104.5)"/><rect x="150" y="98" width="13" height="13" transform="rotate(0,156.5,104.5)"/><rect x="163" y="98" width="13" height="13" transform="rotate(0,169.5,104.5)"/><rect x="176" y="98" width="13" height="13" transform="rotate(0,182.5,104.5)"/><rect x="254" y="98" width="13" height="13" transform="rotate(0,260.5,104.5)"/><rect x="267" y="98" width="13" height="13" transform="rotate(0,273.5,104.5)"/><rect x="319" y="98" width="13" height="13" transform="rotate(0,325.5,104.5)"/><rect x="332" y="98" width="13" height="13" transform="rotate(0,338.5,104.5)"/><rect x="345" y="98" width="13" height="13" transform="rotate(0,351.5,104.5)"/><rect x="358" y="98" width="13" height="13" transform="rotate(0,364.5,104.5)"/><rect x="423" y="98" width="13" height="13" transform="rotate(0,429.5,104.5)"/><rect x="449" y="98" width="13" height="13" transform="rotate(0,455.5,104.5)"/><rect x="462" y="98" width="13" height="13" transform="rotate(0,468.5,104.5)"/><rect x="475" y="98" width="13" height="13" transform="rotate(0,481.5,104.5)"/><rect x="7" y="111" width="13" height="13" transform="rotate(0,13.5,117.5)"/><rect x="46" y="111" width="13" height="13" transform="rotate(0,52.5,117.5)"/><rect x="72" y="111" width="13" height="13" transform="rotate(0,78.5,117.5)"/><rect x="85" y="111" width="13" height="13" transform="rotate(0,91.5,117.5)"/><rect x="111" y="111" width="13" height="13" transform="rotate(0,117.5,117.5)"/><rect x="124" y="111" width="13" height="13" transform="rotate(0,130.5,117.5)"/><rect x="150" y="111" width="13" height="13" transform="rotate(0,156.5,117.5)"/><rect x="163" y="111" width="13" height="13" transform="rotate(0,169.5,117.5)"/><rect x="202" y="111" width="13" height="13" transform="rotate(0,208.5,117.5)"/><rect x="228" y="111" width="13" height="13" transform="rotate(0,234.5,117.5)"/><rect x="241" y="111" width="13" height="13" transform="rotate(0,247.5,117.5)"/><rect x="254" y="111" width="13" height="13" transform="rotate(0,260.5,117.5)"/><rect x="267" y="111" width="13" height="13" transform="rotate(0,273.5,117.5)"/><rect x="280" y="111" width="13" height="13" transform="rotate(0,286.5,117.5)"/><rect x="293" y="111" width="13" height="13" transform="rotate(0,299.5,117.5)"/><rect x="306" y="111" width="13" height="13" transform="rotate(0,312.5,117.5)"/><rect x="319" y="111" width="13" height="13" transform="rotate(0,325.5,117.5)"/><rect x="332" y="111" width="13" height="13" transform="rotate(0,338.5,117.5)"/><rect x="345" y="111" width="13" height="13" transform="rotate(0,351.5,117.5)"/><rect x="358" y="111" width="13" height="13" transform="rotate(0,364.5,117.5)"/><rect x="371" y="111" width="13" height="13" transform="rotate(0,377.5,117.5)"/><rect x="384" y="111" width="13" height="13" transform="rotate(0,390.5,117.5)"/><rect x="397" y="111" width="13" height="13" transform="rotate(0,403.5,117.5)"/><rect x="410" y="111" width="13" height="13" transform="rotate(0,416.5,117.5)"/><rect x="436" y="111" width="13" height="13" transform="rotate(0,442.5,117.5)"/><rect x="462" y="111" width="13" height="13" transform="rotate(0,468.5,117.5)"/><rect x="488" y="111" width="13" height="13" transform="rotate(0,494.5,117.5)"/><rect x="514" y="111" width="13" height="13" transform="rotate(0,520.5,117.5)"/><rect x="20" y="124" width="13" height="13" transform="rotate(0,26.5,130.5)"/><rect x="33" y="124" width="13" height="13" transform="rotate(0,39.5,130.5)"/><rect x="59" y="124" width="13" height="13" transform="rotate(0,65.5,130.5)"/><rect x="98" y="124" width="13" height="13" transform="rotate(0,104.5,130.5)"/><rect x="124" y="124" width="13" height="13" transform="rotate(0,130.5,130.5)"/><rect x="137" y="124" width="13" height="13" transform="rotate(0,143.5,130.5)"/><rect x="176" y="124" width="13" height="13" transform="rotate(0,182.5,130.5)"/><rect x="202" y="124" width="13" height="13" transform="rotate(0,208.5,130.5)"/><rect x="267" y="124" width="13" height="13" transform="rotate(0,273.5,130.5)"/><rect x="306" y="124" width="13" height="13" transform="rotate(0,312.5,130.5)"/><rect x="371" y="124" width="13" height="13" transform="rotate(0,377.5,130.5)"/><rect x="384" y="124" width="13" height="13" transform="rotate(0,390.5,130.5)"/><rect x="488" y="124" width="13" height="13" transform="rotate(0,494.5,130.5)"/><rect x="527" y="124" width="13" height="13" transform="rotate(0,533.5,130.5)"/><rect x="540" y="124" width="13" height="13" transform="rotate(0,546.5,130.5)"/><rect x="579" y="124" width="13" height="13" transform="rotate(0,585.5,130.5)"/><rect x="20" y="137" width="13" height="13" transform="rotate(0,26.5,143.5)"/><rect x="33" y="137" width="13" height="13" transform="rotate(0,39.5,143.5)"/><rect x="46" y="137" width="13" height="13" transform="rotate(0,52.5,143.5)"/><rect x="59" y="137" width="13" height="13" transform="rotate(0,65.5,143.5)"/><rect x="85" y="137" width="13" height="13" transform="rotate(0,91.5,143.5)"/><rect x="98" y="137" width="13" height="13" transform="rotate(0,104.5,143.5)"/><rect x="124" y="137" width="13" height="13" transform="rotate(0,130.5,143.5)"/><rect x="137" y="137" width="13" height="13" transform="rotate(0,143.5,143.5)"/><rect x="176" y="137" width="13" height="13" transform="rotate(0,182.5,143.5)"/><rect x="189" y="137" width="13" height="13" transform="rotate(0,195.5,143.5)"/><rect x="228" y="137" width="13" height="13" transform="rotate(0,234.5,143.5)"/><rect x="254" y="137" width="13" height="13" transform="rotate(0,260.5,143.5)"/><rect x="267" y="137" width="13" height="13" transform="rotate(0,273.5,143.5)"/><rect x="293" y="137" width="13" height="13" transform="rotate(0,299.5,143.5)"/><rect x="306" y="137" width="13" height="13" transform="rotate(0,312.5,143.5)"/><rect x="332" y="137" width="13" height="13" transform="rotate(0,338.5,143.5)"/><rect x="384" y="137" width="13" height="13" transform="rotate(0,390.5,143.5)"/><rect x="410" y="137" width="13" height="13" transform="rotate(0,416.5,143.5)"/><rect x="436" y="137" width="13" height="13" transform="rotate(0,442.5,143.5)"/><rect x="449" y="137" width="13" height="13" transform="rotate(0,455.5,143.5)"/><rect x="540" y="137" width="13" height="13" transform="rotate(0,546.5,143.5)"/><rect x="553" y="137" width="13" height="13" transform="rotate(0,559.5,143.5)"/><rect x="579" y="137" width="13" height="13" transform="rotate(0,585.5,143.5)"/><rect x="20" y="150" width="13" height="13" transform="rotate(0,26.5,156.5)"/><rect x="46" y="150" width="13" height="13" transform="rotate(0,52.5,156.5)"/><rect x="98" y="150" width="13" height="13" transform="rotate(0,104.5,156.5)"/><rect x="150" y="150" width="13" height="13" transform="rotate(0,156.5,156.5)"/><rect x="189" y="150" width="13" height="13" transform="rotate(0,195.5,156.5)"/><rect x="202" y="150" width="13" height="13" transform="rotate(0,208.5,156.5)"/><rect x="241" y="150" width="13" height="13" transform="rotate(0,247.5,156.5)"/><rect x="319" y="150" width="13" height="13" transform="rotate(0,325.5,156.5)"/><rect x="397" y="150" width="13" height="13" transform="rotate(0,403.5,156.5)"/><rect x="423" y="150" width="13" height="13" transform="rotate(0,429.5,156.5)"/><rect x="462" y="150" width="13" height="13" transform="rotate(0,468.5,156.5)"/><rect x="475" y="150" width="13" height="13" transform="rotate(0,481.5,156.5)"/><rect x="488" y="150" width="13" height="13" transform="rotate(0,494.5,156.5)"/><rect x="527" y="150" width="13" height="13" transform="rotate(0,533.5,156.5)"/><rect x="540" y="150" width="13" height="13" transform="rotate(0,546.5,156.5)"/><rect x="566" y="150" width="13" height="13" transform="rotate(0,572.5,156.5)"/><rect x="579" y="150" width="13" height="13" transform="rotate(0,585.5,156.5)"/><rect x="33" y="163" width="13" height="13" transform="rotate(0,39.5,169.5)"/><rect x="46" y="163" width="13" height="13" transform="rotate(0,52.5,169.5)"/><rect x="59" y="163" width="13" height="13" transform="rotate(0,65.5,169.5)"/><rect x="72" y="163" width="13" height="13" transform="rotate(0,78.5,169.5)"/><rect x="85" y="163" width="13" height="13" transform="rotate(0,91.5,169.5)"/><rect x="98" y="163" width="13" height="13" transform="rotate(0,104.5,169.5)"/><rect x="111" y="163" width="13" height="13" transform="rotate(0,117.5,169.5)"/><rect x="124" y="163" width="13" height="13" transform="rotate(0,130.5,169.5)"/><rect x="137" y="163" width="13" height="13" transform="rotate(0,143.5,169.5)"/><rect x="150" y="163" width="13" height="13" transform="rotate(0,156.5,169.5)"/><rect x="189" y="163" width="13" height="13" transform="rotate(0,195.5,169.5)"/><rect x="202" y="163" width="13" height="13" transform="rotate(0,208.5,169.5)"/><rect x="228" y="163" width="13" height="13" transform="rotate(0,234.5,169.5)"/><rect x="241" y="163" width="13" height="13" transform="rotate(0,247.5,169.5)"/><rect x="280" y="163" width="13" height="13" transform="rotate(0,286.5,169.5)"/><rect x="306" y="163" width="13" height="13" transform="rotate(0,312.5,169.5)"/><rect x="332" y="163" width="13" height="13" transform="rotate(0,338.5,169.5)"/><rect x="371" y="163" width="13" height="13" transform="rotate(0,377.5,169.5)"/><rect x="410" y="163" width="13" height="13" transform="rotate(0,416.5,169.5)"/><rect x="423" y="163" width="13" height="13" transform="rotate(0,429.5,169.5)"/><rect x="449" y="163" width="13" height="13" transform="rotate(0,455.5,169.5)"/><rect x="475" y="163" width="13" height="13" transform="rotate(0,481.5,169.5)"/><rect x="514" y="163" width="13" height="13" transform="rotate(0,520.5,169.5)"/><rect x="527" y="163" width="13" height="13" transform="rotate(0,533.5,169.5)"/><rect x="553" y="163" width="13" height="13" transform="rotate(0,559.5,169.5)"/><rect x="7" y="176" width="13" height="13" transform="rotate(0,13.5,182.5)"/><rect x="46" y="176" width="13" height="13" transform="rotate(0,52.5,182.5)"/><rect x="72" y="176" width="13" height="13" transform="rotate(0,78.5,182.5)"/><rect x="98" y="176" width="13" height="13" transform="rotate(0,104.5,182.5)"/><rect x="111" y="176" width="13" height="13" transform="rotate(0,117.5,182.5)"/><rect x="163" y="176" width="13" height="13" transform="rotate(0,169.5,182.5)"/><rect x="189" y="176" width="13" height="13" transform="rotate(0,195.5,182.5)"/><rect x="215" y="176" width="13" height="13" transform="rotate(0,221.5,182.5)"/><rect x="228" y="176" width="13" height="13" transform="rotate(0,234.5,182.5)"/><rect x="254" y="176" width="13" height="13" transform="rotate(0,260.5,182.5)"/><rect x="267" y="176" width="13" height="13" transform="rotate(0,273.5,182.5)"/><rect x="280" y="176" width="13" height="13" transform="rotate(0,286.5,182.5)"/><rect x="293" y="176" width="13" height="13" transform="rotate(0,299.5,182.5)"/><rect x="306" y="176" width="13" height="13" transform="rotate(0,312.5,182.5)"/><rect x="319" y="176" width="13" height="13" transform="rotate(0,325.5,182.5)"/><rect x="332" y="176" width="13" height="13" transform="rotate(0,338.5,182.5)"/><rect x="371" y="176" width="13" height="13" transform="rotate(0,377.5,182.5)"/><rect x="384" y="176" width="13" height="13" transform="rotate(0,390.5,182.5)"/><rect x="436" y="176" width="13" height="13" transform="rotate(0,442.5,182.5)"/><rect x="449" y="176" width="13" height="13" transform="rotate(0,455.5,182.5)"/><rect x="488" y="176" width="13" height="13" transform="rotate(0,494.5,182.5)"/><rect x="514" y="176" width="13" height="13" transform="rotate(0,520.5,182.5)"/><rect x="527" y="176" width="13" height="13" transform="rotate(0,533.5,182.5)"/><rect x="7" y="189" width="13" height="13" transform="rotate(0,13.5,195.5)"/><rect x="33" y="189" width="13" height="13" transform="rotate(0,39.5,195.5)"/><rect x="72" y="189" width="13" height="13" transform="rotate(0,78.5,195.5)"/><rect x="85" y="189" width="13" height="13" transform="rotate(0,91.5,195.5)"/><rect x="98" y="189" width="13" height="13" transform="rotate(0,104.5,195.5)"/><rect x="111" y="189" width="13" height="13" transform="rotate(0,117.5,195.5)"/><rect x="124" y="189" width="13" height="13" transform="rotate(0,130.5,195.5)"/><rect x="150" y="189" width="13" height="13" transform="rotate(0,156.5,195.5)"/><rect x="189" y="189" width="13" height="13" transform="rotate(0,195.5,195.5)"/><rect x="202" y="189" width="13" height="13" transform="rotate(0,208.5,195.5)"/><rect x="280" y="189" width="13" height="13" transform="rotate(0,286.5,195.5)"/><rect x="293" y="189" width="13" height="13" transform="rotate(0,299.5,195.5)"/><rect x="306" y="189" width="13" height="13" transform="rotate(0,312.5,195.5)"/><rect x="319" y="189" width="13" height="13" transform="rotate(0,325.5,195.5)"/><rect x="371" y="189" width="13" height="13" transform="rotate(0,377.5,195.5)"/><rect x="384" y="189" width="13" height="13" transform="rotate(0,390.5,195.5)"/><rect x="397" y="189" width="13" height="13" transform="rotate(0,403.5,195.5)"/><rect x="410" y="189" width="13" height="13" transform="rotate(0,416.5,195.5)"/><rect x="423" y="189" width="13" height="13" transform="rotate(0,429.5,195.5)"/><rect x="436" y="189" width="13" height="13" transform="rotate(0,442.5,195.5)"/><rect x="527" y="189" width="13" height="13" transform="rotate(0,533.5,195.5)"/><rect x="566" y="189" width="13" height="13" transform="rotate(0,572.5,195.5)"/><rect x="33" y="202" width="13" height="13" transform="rotate(0,39.5,208.5)"/><rect x="46" y="202" width="13" height="13" transform="rotate(0,52.5,208.5)"/><rect x="59" y="202" width="13" height="13" transform="rotate(0,65.5,208.5)"/><rect x="150" y="202" width="13" height="13" transform="rotate(0,156.5,208.5)"/><rect x="176" y="202" width="13" height="13" transform="rotate(0,182.5,208.5)"/><rect x="189" y="202" width="13" height="13" transform="rotate(0,195.5,208.5)"/><rect x="215" y="202" width="13" height="13" transform="rotate(0,221.5,208.5)"/><rect x="280" y="202" width="13" height="13" transform="rotate(0,286.5,208.5)"/><rect x="306" y="202" width="13" height="13" transform="rotate(0,312.5,208.5)"/><rect x="332" y="202" width="13" height="13" transform="rotate(0,338.5,208.5)"/><rect x="358" y="202" width="13" height="13" transform="rotate(0,364.5,208.5)"/><rect x="371" y="202" width="13" height="13" transform="rotate(0,377.5,208.5)"/><rect x="410" y="202" width="13" height="13" transform="rotate(0,416.5,208.5)"/><rect x="423" y="202" width="13" height="13" transform="rotate(0,429.5,208.5)"/><rect x="449" y="202" width="13" height="13" transform="rotate(0,455.5,208.5)"/><rect x="501" y="202" width="13" height="13" transform="rotate(0,507.5,208.5)"/><rect x="514" y="202" width="13" height="13" transform="rotate(0,520.5,208.5)"/><rect x="527" y="202" width="13" height="13" transform="rotate(0,533.5,208.5)"/><rect x="7" y="215" width="13" height="13" transform="rotate(0,13.5,221.5)"/><rect x="20" y="215" width="13" height="13" transform="rotate(0,26.5,221.5)"/><rect x="46" y="215" width="13" height="13" transform="rotate(0,52.5,221.5)"/><rect x="72" y="215" width="13" height="13" transform="rotate(0,78.5,221.5)"/><rect x="85" y="215" width="13" height="13" transform="rotate(0,91.5,221.5)"/><rect x="98" y="215" width="13" height="13" transform="rotate(0,104.5,221.5)"/><rect x="111" y="215" width="13" height="13" transform="rotate(0,117.5,221.5)"/><rect x="124" y="215" width="13" height="13" transform="rotate(0,130.5,221.5)"/><rect x="150" y="215" width="13" height="13" transform="rotate(0,156.5,221.5)"/><rect x="176" y="215" width="13" height="13" transform="rotate(0,182.5,221.5)"/><rect x="228" y="215" width="13" height="13" transform="rotate(0,234.5,221.5)"/><rect x="241" y="215" width="13" height="13" transform="rotate(0,247.5,221.5)"/><rect x="267" y="215" width="13" height="13" transform="rotate(0,273.5,221.5)"/><rect x="280" y="215" width="13" height="13" transform="rotate(0,286.5,221.5)"/><rect x="345" y="215" width="13" height="13" transform="rotate(0,351.5,221.5)"/><rect x="384" y="215" width="13" height="13" transform="rotate(0,390.5,221.5)"/><rect x="423" y="215" width="13" height="13" transform="rotate(0,429.5,221.5)"/><rect x="436" y="215" width="13" height="13" transform="rotate(0,442.5,221.5)"/><rect x="449" y="215" width="13" height="13" transform="rotate(0,455.5,221.5)"/><rect x="462" y="215" width="13" height="13" transform="rotate(0,468.5,221.5)"/><rect x="488" y="215" width="13" height="13" transform="rotate(0,494.5,221.5)"/><rect x="514" y="215" width="13" height="13" transform="rotate(0,520.5,221.5)"/><rect x="566" y="215" width="13" height="13" transform="rotate(0,572.5,221.5)"/><rect x="7" y="228" width="13" height="13" transform="rotate(0,13.5,234.5)"/><rect x="33" y="228" width="13" height="13" transform="rotate(0,39.5,234.5)"/><rect x="46" y="228" width="13" height="13" transform="rotate(0,52.5,234.5)"/><rect x="59" y="228" width="13" height="13" transform="rotate(0,65.5,234.5)"/><rect x="72" y="228" width="13" height="13" transform="rotate(0,78.5,234.5)"/><rect x="111" y="228" width="13" height="13" transform="rotate(0,117.5,234.5)"/><rect x="124" y="228" width="13" height="13" transform="rotate(0,130.5,234.5)"/><rect x="137" y="228" width="13" height="13" transform="rotate(0,143.5,234.5)"/><rect x="176" y="228" width="13" height="13" transform="rotate(0,182.5,234.5)"/><rect x="202" y="228" width="13" height="13" transform="rotate(0,208.5,234.5)"/><rect x="228" y="228" width="13" height="13" transform="rotate(0,234.5,234.5)"/><rect x="267" y="228" width="13" height="13" transform="rotate(0,273.5,234.5)"/><rect x="293" y="228" width="13" height="13" transform="rotate(0,299.5,234.5)"/><rect x="319" y="228" width="13" height="13" transform="rotate(0,325.5,234.5)"/><rect x="332" y="228" width="13" height="13" transform="rotate(0,338.5,234.5)"/><rect x="345" y="228" width="13" height="13" transform="rotate(0,351.5,234.5)"/><rect x="358" y="228" width="13" height="13" transform="rotate(0,364.5,234.5)"/><rect x="371" y="228" width="13" height="13" transform="rotate(0,377.5,234.5)"/><rect x="384" y="228" width="13" height="13" transform="rotate(0,390.5,234.5)"/><rect x="410" y="228" width="13" height="13" transform="rotate(0,416.5,234.5)"/><rect x="462" y="228" width="13" height="13" transform="rotate(0,468.5,234.5)"/><rect x="501" y="228" width="13" height="13" transform="rotate(0,507.5,234.5)"/><rect x="540" y="228" width="13" height="13" transform="rotate(0,546.5,234.5)"/><rect x="566" y="228" width="13" height="13" transform="rotate(0,572.5,234.5)"/><rect x="7" y="241" width="13" height="13" transform="rotate(0,13.5,247.5)"/><rect x="20" y="241" width="13" height="13" transform="rotate(0,26.5,247.5)"/><rect x="33" y="241" width="13" height="13" transform="rotate(0,39.5,247.5)"/><rect x="46" y="241" width="13" height="13" transform="rotate(0,52.5,247.5)"/><rect x="59" y="241" width="13" height="13" transform="rotate(0,65.5,247.5)"/><rect x="72" y="241" width="13" height="13" transform="rotate(0,78.5,247.5)"/><rect x="85" y="241" width="13" height="13" transform="rotate(0,91.5,247.5)"/><rect x="98" y="241" width="13" height="13" transform="rotate(0,104.5,247.5)"/><rect x="111" y="241" width="13" height="13" transform="rotate(0,117.5,247.5)"/><rect x="137" y="241" width="13" height="13" transform="rotate(0,143.5,247.5)"/><rect x="176" y="241" width="13" height="13" transform="rotate(0,182.5,247.5)"/><rect x="189" y="241" width="13" height="13" transform="rotate(0,195.5,247.5)"/><rect x="215" y="241" width="13" height="13" transform="rotate(0,221.5,247.5)"/><rect x="280" y="241" width="13" height="13" transform="rotate(0,286.5,247.5)"/><rect x="306" y="241" width="13" height="13" transform="rotate(0,312.5,247.5)"/><rect x="319" y="241" width="13" height="13" transform="rotate(0,325.5,247.5)"/><rect x="332" y="241" width="13" height="13" transform="rotate(0,338.5,247.5)"/><rect x="371" y="241" width="13" height="13" transform="rotate(0,377.5,247.5)"/><rect x="410" y="241" width="13" height="13" transform="rotate(0,416.5,247.5)"/><rect x="423" y="241" width="13" height="13" transform="rotate(0,429.5,247.5)"/><rect x="462" y="241" width="13" height="13" transform="rotate(0,468.5,247.5)"/><rect x="527" y="241" width="13" height="13" transform="rotate(0,533.5,247.5)"/><rect x="566" y="241" width="13" height="13" transform="rotate(0,572.5,247.5)"/><rect x="579" y="241" width="13" height="13" transform="rotate(0,585.5,247.5)"/><rect x="20" y="254" width="13" height="13" transform="rotate(0,26.5,260.5)"/><rect x="33" y="254" width="13" height="13" transform="rotate(0,39.5,260.5)"/><rect x="46" y="254" width="13" height="13" transform="rotate(0,52.5,260.5)"/><rect x="59" y="254" width="13" height="13" transform="rotate(0,65.5,260.5)"/><rect x="72" y="254" width="13" height="13" transform="rotate(0,78.5,260.5)"/><rect x="111" y="254" width="13" height="13" transform="rotate(0,117.5,260.5)"/><rect x="124" y="254" width="13" height="13" transform="rotate(0,130.5,260.5)"/><rect x="137" y="254" width="13" height="13" transform="rotate(0,143.5,260.5)"/><rect x="189" y="254" width="13" height="13" transform="rotate(0,195.5,260.5)"/><rect x="202" y="254" width="13" height="13" transform="rotate(0,208.5,260.5)"/><rect x="228" y="254" width="13" height="13" transform="rotate(0,234.5,260.5)"/><rect x="254" y="254" width="13" height="13" transform="rotate(0,260.5,260.5)"/><rect x="293" y="254" width="13" height="13" transform="rotate(0,299.5,260.5)"/><rect x="358" y="254" width="13" height="13" transform="rotate(0,364.5,260.5)"/><rect x="371" y="254" width="13" height="13" transform="rotate(0,377.5,260.5)"/><rect x="384" y="254" width="13" height="13" transform="rotate(0,390.5,260.5)"/><rect x="397" y="254" width="13" height="13" transform="rotate(0,403.5,260.5)"/><rect x="410" y="254" width="13" height="13" transform="rotate(0,416.5,260.5)"/><rect x="423" y="254" width="13" height="13" transform="rotate(0,429.5,260.5)"/><rect x="436" y="254" width="13" height="13" transform="rotate(0,442.5,260.5)"/><rect x="475" y="254" width="13" height="13" transform="rotate(0,481.5,260.5)"/><rect x="501" y="254" width="13" height="13" transform="rotate(0,507.5,260.5)"/><rect x="527" y="254" width="13" height="13" transform="rotate(0,533.5,260.5)"/><rect x="540" y="254" width="13" height="13" transform="rotate(0,546.5,260.5)"/><rect x="566" y="254" width="13" height="13" transform="rotate(0,572.5,260.5)"/><rect x="46" y="267" width="13" height="13" transform="rotate(0,52.5,273.5)"/><rect x="59" y="267" width="13" height="13" transform="rotate(0,65.5,273.5)"/><rect x="72" y="267" width="13" height="13" transform="rotate(0,78.5,273.5)"/><rect x="85" y="267" width="13" height="13" transform="rotate(0,91.5,273.5)"/><rect x="98" y="267" width="13" height="13" transform="rotate(0,104.5,273.5)"/><rect x="111" y="267" width="13" height="13" transform="rotate(0,117.5,273.5)"/><rect x="137" y="267" width="13" height="13" transform="rotate(0,143.5,273.5)"/><rect x="163" y="267" width="13" height="13" transform="rotate(0,169.5,273.5)"/><rect x="176" y="267" width="13" height="13" transform="rotate(0,182.5,273.5)"/><rect x="189" y="267" width="13" height="13" transform="rotate(0,195.5,273.5)"/><rect x="202" y="267" width="13" height="13" transform="rotate(0,208.5,273.5)"/><rect x="241" y="267" width="13" height="13" transform="rotate(0,247.5,273.5)"/><rect x="254" y="267" width="13" height="13" transform="rotate(0,260.5,273.5)"/><rect x="267" y="267" width="13" height="13" transform="rotate(0,273.5,273.5)"/><rect x="280" y="267" width="13" height="13" transform="rotate(0,286.5,273.5)"/><rect x="293" y="267" width="13" height="13" transform="rotate(0,299.5,273.5)"/><rect x="306" y="267" width="13" height="13" transform="rotate(0,312.5,273.5)"/><rect x="319" y="267" width="13" height="13" transform="rotate(0,325.5,273.5)"/><rect x="332" y="267" width="13" height="13" transform="rotate(0,338.5,273.5)"/><rect x="358" y="267" width="13" height="13" transform="rotate(0,364.5,273.5)"/><rect x="371" y="267" width="13" height="13" transform="rotate(0,377.5,273.5)"/><rect x="397" y="267" width="13" height="13" transform="rotate(0,403.5,273.5)"/><rect x="436" y="267" width="13" height="13" transform="rotate(0,442.5,273.5)"/><rect x="449" y="267" width="13" height="13" transform="rotate(0,455.5,273.5)"/><rect x="475" y="267" width="13" height="13" transform="rotate(0,481.5,273.5)"/><rect x="488" y="267" width="13" height="13" transform="rotate(0,494.5,273.5)"/><rect x="501" y="267" width="13" height="13" transform="rotate(0,507.5,273.5)"/><rect x="514" y="267" width="13" height="13" transform="rotate(0,520.5,273.5)"/><rect x="527" y="267" width="13" height="13" transform="rotate(0,533.5,273.5)"/><rect x="579" y="267" width="13" height="13" transform="rotate(0,585.5,273.5)"/><rect x="20" y="280" width="13" height="13" transform="rotate(0,26.5,286.5)"/><rect x="33" y="280" width="13" height="13" transform="rotate(0,39.5,286.5)"/><rect x="46" y="280" width="13" height="13" transform="rotate(0,52.5,286.5)"/><rect x="59" y="280" width="13" height="13" transform="rotate(0,65.5,286.5)"/><rect x="111" y="280" width="13" height="13" transform="rotate(0,117.5,286.5)"/><rect x="150" y="280" width="13" height="13" transform="rotate(0,156.5,286.5)"/><rect x="163" y="280" width="13" height="13" transform="rotate(0,169.5,286.5)"/><rect x="176" y="280" width="13" height="13" transform="rotate(0,182.5,286.5)"/><rect x="189" y="280" width="13" height="13" transform="rotate(0,195.5,286.5)"/><rect x="202" y="280" width="13" height="13" transform="rotate(0,208.5,286.5)"/><rect x="228" y="280" width="13" height="13" transform="rotate(0,234.5,286.5)"/><rect x="254" y="280" width="13" height="13" transform="rotate(0,260.5,286.5)"/><rect x="267" y="280" width="13" height="13" transform="rotate(0,273.5,286.5)"/><rect x="319" y="280" width="13" height="13" transform="rotate(0,325.5,286.5)"/><rect x="332" y="280" width="13" height="13" transform="rotate(0,338.5,286.5)"/><rect x="462" y="280" width="13" height="13" transform="rotate(0,468.5,286.5)"/><rect x="475" y="280" width="13" height="13" transform="rotate(0,481.5,286.5)"/><rect x="527" y="280" width="13" height="13" transform="rotate(0,533.5,286.5)"/><rect x="579" y="280" width="13" height="13" transform="rotate(0,585.5,286.5)"/><rect x="7" y="293" width="13" height="13" transform="rotate(0,13.5,299.5)"/><rect x="20" y="293" width="13" height="13" transform="rotate(0,26.5,299.5)"/><rect x="33" y="293" width="13" height="13" transform="rotate(0,39.5,299.5)"/><rect x="59" y="293" width="13" height="13" transform="rotate(0,65.5,299.5)"/><rect x="85" y="293" width="13" height="13" transform="rotate(0,91.5,299.5)"/><rect x="111" y="293" width="13" height="13" transform="rotate(0,117.5,299.5)"/><rect x="124" y="293" width="13" height="13" transform="rotate(0,130.5,299.5)"/><rect x="150" y="293" width="13" height="13" transform="rotate(0,156.5,299.5)"/><rect x="163" y="293" width="13" height="13" transform="rotate(0,169.5,299.5)"/><rect x="202" y="293" width="13" height="13" transform="rotate(0,208.5,299.5)"/><rect x="228" y="293" width="13" height="13" transform="rotate(0,234.5,299.5)"/><rect x="267" y="293" width="13" height="13" transform="rotate(0,273.5,299.5)"/><rect x="293" y="293" width="13" height="13" transform="rotate(0,299.5,299.5)"/><rect x="319" y="293" width="13" height="13" transform="rotate(0,325.5,299.5)"/><rect x="345" y="293" width="13" height="13" transform="rotate(0,351.5,299.5)"/><rect x="371" y="293" width="13" height="13" transform="rotate(0,377.5,299.5)"/><rect x="397" y="293" width="13" height="13" transform="rotate(0,403.5,299.5)"/><rect x="462" y="293" width="13" height="13" transform="rotate(0,468.5,299.5)"/><rect x="475" y="293" width="13" height="13" transform="rotate(0,481.5,299.5)"/><rect x="501" y="293" width="13" height="13" transform="rotate(0,507.5,299.5)"/><rect x="527" y="293" width="13" height="13" transform="rotate(0,533.5,299.5)"/><rect x="553" y="293" width="13" height="13" transform="rotate(0,559.5,299.5)"/><rect x="579" y="293" width="13" height="13" transform="rotate(0,585.5,299.5)"/><rect x="7" y="306" width="13" height="13" transform="rotate(0,13.5,312.5)"/><rect x="59" y="306" width="13" height="13" transform="rotate(0,65.5,312.5)"/><rect x="111" y="306" width="13" height="13" transform="rotate(0,117.5,312.5)"/><rect x="124" y="306" width="13" height="13" transform="rotate(0,130.5,312.5)"/><rect x="176" y="306" width="13" height="13" transform="rotate(0,182.5,312.5)"/><rect x="202" y="306" width="13" height="13" transform="rotate(0,208.5,312.5)"/><rect x="215" y="306" width="13" height="13" transform="rotate(0,221.5,312.5)"/><rect x="241" y="306" width="13" height="13" transform="rotate(0,247.5,312.5)"/><rect x="254" y="306" width="13" height="13" transform="rotate(0,260.5,312.5)"/><rect x="267" y="306" width="13" height="13" transform="rotate(0,273.5,312.5)"/><rect x="319" y="306" width="13" height="13" transform="rotate(0,325.5,312.5)"/><rect x="358" y="306" width="13" height="13" transform="rotate(0,364.5,312.5)"/><rect x="371" y="306" width="13" height="13" transform="rotate(0,377.5,312.5)"/><rect x="384" y="306" width="13" height="13" transform="rotate(0,390.5,312.5)"/><rect x="397" y="306" width="13" height="13" transform="rotate(0,403.5,312.5)"/><rect x="410" y="306" width="13" height="13" transform="rotate(0,416.5,312.5)"/><rect x="475" y="306" width="13" height="13" transform="rotate(0,481.5,312.5)"/><rect x="527" y="306" width="13" height="13" transform="rotate(0,533.5,312.5)"/><rect x="540" y="306" width="13" height="13" transform="rotate(0,546.5,312.5)"/><rect x="579" y="306" width="13" height="13" transform="rotate(0,585.5,312.5)"/><rect x="33" y="319" width="13" height="13" transform="rotate(0,39.5,325.5)"/><rect x="59" y="319" width="13" height="13" transform="rotate(0,65.5,325.5)"/><rect x="72" y="319" width="13" height="13" transform="rotate(0,78.5,325.5)"/><rect x="85" y="319" width="13" height="13" transform="rotate(0,91.5,325.5)"/><rect x="98" y="319" width="13" height="13" transform="rotate(0,104.5,325.5)"/><rect x="111" y="319" width="13" height="13" transform="rotate(0,117.5,325.5)"/><rect x="137" y="319" width="13" height="13" transform="rotate(0,143.5,325.5)"/><rect x="189" y="319" width="13" height="13" transform="rotate(0,195.5,325.5)"/><rect x="215" y="319" width="13" height="13" transform="rotate(0,221.5,325.5)"/><rect x="228" y="319" width="13" height="13" transform="rotate(0,234.5,325.5)"/><rect x="267" y="319" width="13" height="13" transform="rotate(0,273.5,325.5)"/><rect x="280" y="319" width="13" height="13" transform="rotate(0,286.5,325.5)"/><rect x="293" y="319" width="13" height="13" transform="rotate(0,299.5,325.5)"/><rect x="306" y="319" width="13" height="13" transform="rotate(0,312.5,325.5)"/><rect x="319" y="319" width="13" height="13" transform="rotate(0,325.5,325.5)"/><rect x="332" y="319" width="13" height="13" transform="rotate(0,338.5,325.5)"/><rect x="345" y="319" width="13" height="13" transform="rotate(0,351.5,325.5)"/><rect x="358" y="319" width="13" height="13" transform="rotate(0,364.5,325.5)"/><rect x="371" y="319" width="13" height="13" transform="rotate(0,377.5,325.5)"/><rect x="384" y="319" width="13" height="13" transform="rotate(0,390.5,325.5)"/><rect x="397" y="319" width="13" height="13" transform="rotate(0,403.5,325.5)"/><rect x="410" y="319" width="13" height="13" transform="rotate(0,416.5,325.5)"/><rect x="423" y="319" width="13" height="13" transform="rotate(0,429.5,325.5)"/><rect x="436" y="319" width="13" height="13" transform="rotate(0,442.5,325.5)"/><rect x="462" y="319" width="13" height="13" transform="rotate(0,468.5,325.5)"/><rect x="475" y="319" width="13" height="13" transform="rotate(0,481.5,325.5)"/><rect x="488" y="319" width="13" height="13" transform="rotate(0,494.5,325.5)"/><rect x="501" y="319" width="13" height="13" transform="rotate(0,507.5,325.5)"/><rect x="514" y="319" width="13" height="13" transform="rotate(0,520.5,325.5)"/><rect x="527" y="319" width="13" height="13" transform="rotate(0,533.5,325.5)"/><rect x="540" y="319" width="13" height="13" transform="rotate(0,546.5,325.5)"/><rect x="566" y="319" width="13" height="13" transform="rotate(0,572.5,325.5)"/><rect x="579" y="319" width="13" height="13" transform="rotate(0,585.5,325.5)"/><rect x="20" y="332" width="13" height="13" transform="rotate(0,26.5,338.5)"/><rect x="150" y="332" width="13" height="13" transform="rotate(0,156.5,338.5)"/><rect x="176" y="332" width="13" height="13" transform="rotate(0,182.5,338.5)"/><rect x="189" y="332" width="13" height="13" transform="rotate(0,195.5,338.5)"/><rect x="215" y="332" width="13" height="13" transform="rotate(0,221.5,338.5)"/><rect x="228" y="332" width="13" height="13" transform="rotate(0,234.5,338.5)"/><rect x="254" y="332" width="13" height="13" transform="rotate(0,260.5,338.5)"/><rect x="319" y="332" width="13" height="13" transform="rotate(0,325.5,338.5)"/><rect x="358" y="332" width="13" height="13" transform="rotate(0,364.5,338.5)"/><rect x="384" y="332" width="13" height="13" transform="rotate(0,390.5,338.5)"/><rect x="410" y="332" width="13" height="13" transform="rotate(0,416.5,338.5)"/><rect x="449" y="332" width="13" height="13" transform="rotate(0,455.5,338.5)"/><rect x="462" y="332" width="13" height="13" transform="rotate(0,468.5,338.5)"/><rect x="488" y="332" width="13" height="13" transform="rotate(0,494.5,338.5)"/><rect x="527" y="332" width="13" height="13" transform="rotate(0,533.5,338.5)"/><rect x="579" y="332" width="13" height="13" transform="rotate(0,585.5,338.5)"/><rect x="7" y="345" width="13" height="13" transform="rotate(0,13.5,351.5)"/><rect x="20" y="345" width="13" height="13" transform="rotate(0,26.5,351.5)"/><rect x="33" y="345" width="13" height="13" transform="rotate(0,39.5,351.5)"/><rect x="46" y="345" width="13" height="13" transform="rotate(0,52.5,351.5)"/><rect x="72" y="345" width="13" height="13" transform="rotate(0,78.5,351.5)"/><rect x="85" y="345" width="13" height="13" transform="rotate(0,91.5,351.5)"/><rect x="98" y="345" width="13" height="13" transform="rotate(0,104.5,351.5)"/><rect x="111" y="345" width="13" height="13" transform="rotate(0,117.5,351.5)"/><rect x="124" y="345" width="13" height="13" transform="rotate(0,130.5,351.5)"/><rect x="137" y="345" width="13" height="13" transform="rotate(0,143.5,351.5)"/><rect x="176" y="345" width="13" height="13" transform="rotate(0,182.5,351.5)"/><rect x="189" y="345" width="13" height="13" transform="rotate(0,195.5,351.5)"/><rect x="202" y="345" width="13" height="13" transform="rotate(0,208.5,351.5)"/><rect x="241" y="345" width="13" height="13" transform="rotate(0,247.5,351.5)"/><rect x="267" y="345" width="13" height="13" transform="rotate(0,273.5,351.5)"/><rect x="280" y="345" width="13" height="13" transform="rotate(0,286.5,351.5)"/><rect x="345" y="345" width="13" height="13" transform="rotate(0,351.5,351.5)"/><rect x="358" y="345" width="13" height="13" transform="rotate(0,364.5,351.5)"/><rect x="410" y="345" width="13" height="13" transform="rotate(0,416.5,351.5)"/><rect x="423" y="345" width="13" height="13" transform="rotate(0,429.5,351.5)"/><rect x="436" y="345" width="13" height="13" transform="rotate(0,442.5,351.5)"/><rect x="462" y="345" width="13" height="13" transform="rotate(0,468.5,351.5)"/><rect x="475" y="345" width="13" height="13" transform="rotate(0,481.5,351.5)"/><rect x="488" y="345" width="13" height="13" transform="rotate(0,494.5,351.5)"/><rect x="527" y="345" width="13" height="13" transform="rotate(0,533.5,351.5)"/><rect x="540" y="345" width="13" height="13" transform="rotate(0,546.5,351.5)"/><rect x="553" y="345" width="13" height="13" transform="rotate(0,559.5,351.5)"/><rect x="566" y="345" width="13" height="13" transform="rotate(0,572.5,351.5)"/><rect x="7" y="358" width="13" height="13" transform="rotate(0,13.5,364.5)"/><rect x="20" y="358" width="13" height="13" transform="rotate(0,26.5,364.5)"/><rect x="72" y="358" width="13" height="13" transform="rotate(0,78.5,364.5)"/><rect x="98" y="358" width="13" height="13" transform="rotate(0,104.5,364.5)"/><rect x="111" y="358" width="13" height="13" transform="rotate(0,117.5,364.5)"/><rect x="189" y="358" width="13" height="13" transform="rotate(0,195.5,364.5)"/><rect x="215" y="358" width="13" height="13" transform="rotate(0,221.5,364.5)"/><rect x="228" y="358" width="13" height="13" transform="rotate(0,234.5,364.5)"/><rect x="267" y="358" width="13" height="13" transform="rotate(0,273.5,364.5)"/><rect x="280" y="358" width="13" height="13" transform="rotate(0,286.5,364.5)"/><rect x="293" y="358" width="13" height="13" transform="rotate(0,299.5,364.5)"/><rect x="358" y="358" width="13" height="13" transform="rotate(0,364.5,364.5)"/><rect x="397" y="358" width="13" height="13" transform="rotate(0,403.5,364.5)"/><rect x="410" y="358" width="13" height="13" transform="rotate(0,416.5,364.5)"/><rect x="423" y="358" width="13" height="13" transform="rotate(0,429.5,364.5)"/><rect x="436" y="358" width="13" height="13" transform="rotate(0,442.5,364.5)"/><rect x="475" y="358" width="13" height="13" transform="rotate(0,481.5,364.5)"/><rect x="488" y="358" width="13" height="13" transform="rotate(0,494.5,364.5)"/><rect x="501" y="358" width="13" height="13" transform="rotate(0,507.5,364.5)"/><rect x="514" y="358" width="13" height="13" transform="rotate(0,520.5,364.5)"/><rect x="579" y="358" width="13" height="13" transform="rotate(0,585.5,364.5)"/><rect x="20" y="371" width="13" height="13" transform="rotate(0,26.5,377.5)"/><rect x="33" y="371" width="13" height="13" transform="rotate(0,39.5,377.5)"/><rect x="72" y="371" width="13" height="13" transform="rotate(0,78.5,377.5)"/><rect x="85" y="371" width="13" height="13" transform="rotate(0,91.5,377.5)"/><rect x="124" y="371" width="13" height="13" transform="rotate(0,130.5,377.5)"/><rect x="176" y="371" width="13" height="13" transform="rotate(0,182.5,377.5)"/><rect x="189" y="371" width="13" height="13" transform="rotate(0,195.5,377.5)"/><rect x="228" y="371" width="13" height="13" transform="rotate(0,234.5,377.5)"/><rect x="241" y="371" width="13" height="13" transform="rotate(0,247.5,377.5)"/><rect x="280" y="371" width="13" height="13" transform="rotate(0,286.5,377.5)"/><rect x="319" y="371" width="13" height="13" transform="rotate(0,325.5,377.5)"/><rect x="345" y="371" width="13" height="13" transform="rotate(0,351.5,377.5)"/><rect x="358" y="371" width="13" height="13" transform="rotate(0,364.5,377.5)"/><rect x="371" y="371" width="13" height="13" transform="rotate(0,377.5,377.5)"/><rect x="423" y="371" width="13" height="13" transform="rotate(0,429.5,377.5)"/><rect x="449" y="371" width="13" height="13" transform="rotate(0,455.5,377.5)"/><rect x="488" y="371" width="13" height="13" transform="rotate(0,494.5,377.5)"/><rect x="514" y="371" width="13" height="13" transform="rotate(0,520.5,377.5)"/><rect x="527" y="371" width="13" height="13" transform="rotate(0,533.5,377.5)"/><rect x="566" y="371" width="13" height="13" transform="rotate(0,572.5,377.5)"/><rect x="98" y="384" width="13" height="13" transform="rotate(0,104.5,390.5)"/><rect x="124" y="384" width="13" height="13" transform="rotate(0,130.5,390.5)"/><rect x="150" y="384" width="13" height="13" transform="rotate(0,156.5,390.5)"/><rect x="163" y="384" width="13" height="13" transform="rotate(0,169.5,390.5)"/><rect x="189" y="384" width="13" height="13" transform="rotate(0,195.5,390.5)"/><rect x="215" y="384" width="13" height="13" transform="rotate(0,221.5,390.5)"/><rect x="228" y="384" width="13" height="13" transform="rotate(0,234.5,390.5)"/><rect x="254" y="384" width="13" height="13" transform="rotate(0,260.5,390.5)"/><rect x="267" y="384" width="13" height="13" transform="rotate(0,273.5,390.5)"/><rect x="293" y="384" width="13" height="13" transform="rotate(0,299.5,390.5)"/><rect x="345" y="384" width="13" height="13" transform="rotate(0,351.5,390.5)"/><rect x="358" y="384" width="13" height="13" transform="rotate(0,364.5,390.5)"/><rect x="371" y="384" width="13" height="13" transform="rotate(0,377.5,390.5)"/><rect x="384" y="384" width="13" height="13" transform="rotate(0,390.5,390.5)"/><rect x="397" y="384" width="13" height="13" transform="rotate(0,403.5,390.5)"/><rect x="462" y="384" width="13" height="13" transform="rotate(0,468.5,390.5)"/><rect x="475" y="384" width="13" height="13" transform="rotate(0,481.5,390.5)"/><rect x="488" y="384" width="13" height="13" transform="rotate(0,494.5,390.5)"/><rect x="540" y="384" width="13" height="13" transform="rotate(0,546.5,390.5)"/><rect x="33" y="397" width="13" height="13" transform="rotate(0,39.5,403.5)"/><rect x="46" y="397" width="13" height="13" transform="rotate(0,52.5,403.5)"/><rect x="85" y="397" width="13" height="13" transform="rotate(0,91.5,403.5)"/><rect x="150" y="397" width="13" height="13" transform="rotate(0,156.5,403.5)"/><rect x="163" y="397" width="13" height="13" transform="rotate(0,169.5,403.5)"/><rect x="176" y="397" width="13" height="13" transform="rotate(0,182.5,403.5)"/><rect x="189" y="397" width="13" height="13" transform="rotate(0,195.5,403.5)"/><rect x="228" y="397" width="13" height="13" transform="rotate(0,234.5,403.5)"/><rect x="280" y="397" width="13" height="13" transform="rotate(0,286.5,403.5)"/><rect x="293" y="397" width="13" height="13" transform="rotate(0,299.5,403.5)"/><rect x="306" y="397" width="13" height="13" transform="rotate(0,312.5,403.5)"/><rect x="319" y="397" width="13" height="13" transform="rotate(0,325.5,403.5)"/><rect x="358" y="397" width="13" height="13" transform="rotate(0,364.5,403.5)"/><rect x="397" y="397" width="13" height="13" transform="rotate(0,403.5,403.5)"/><rect x="462" y="397" width="13" height="13" transform="rotate(0,468.5,403.5)"/><rect x="501" y="397" width="13" height="13" transform="rotate(0,507.5,403.5)"/><rect x="527" y="397" width="13" height="13" transform="rotate(0,533.5,403.5)"/><rect x="540" y="397" width="13" height="13" transform="rotate(0,546.5,403.5)"/><rect x="553" y="397" width="13" height="13" transform="rotate(0,559.5,403.5)"/><rect x="579" y="397" width="13" height="13" transform="rotate(0,585.5,403.5)"/><rect x="20" y="410" width="13" height="13" transform="rotate(0,26.5,416.5)"/><rect x="46" y="410" width="13" height="13" transform="rotate(0,52.5,416.5)"/><rect x="59" y="410" width="13" height="13" transform="rotate(0,65.5,416.5)"/><rect x="98" y="410" width="13" height="13" transform="rotate(0,104.5,416.5)"/><rect x="111" y="410" width="13" height="13" transform="rotate(0,117.5,416.5)"/><rect x="150" y="410" width="13" height="13" transform="rotate(0,156.5,416.5)"/><rect x="163" y="410" width="13" height="13" transform="rotate(0,169.5,416.5)"/><rect x="176" y="410" width="13" height="13" transform="rotate(0,182.5,416.5)"/><rect x="202" y="410" width="13" height="13" transform="rotate(0,208.5,416.5)"/><rect x="241" y="410" width="13" height="13" transform="rotate(0,247.5,416.5)"/><rect x="280" y="410" width="13" height="13" transform="rotate(0,286.5,416.5)"/><rect x="293" y="410" width="13" height="13" transform="rotate(0,299.5,416.5)"/><rect x="306" y="410" width="13" height="13" transform="rotate(0,312.5,416.5)"/><rect x="345" y="410" width="13" height="13" transform="rotate(0,351.5,416.5)"/><rect x="397" y="410" width="13" height="13" transform="rotate(0,403.5,416.5)"/><rect x="423" y="410" width="13" height="13" transform="rotate(0,429.5,416.5)"/><rect x="449" y="410" width="13" height="13" transform="rotate(0,455.5,416.5)"/><rect x="501" y="410" width="13" height="13" transform="rotate(0,507.5,416.5)"/><rect x="514" y="410" width="13" height="13" transform="rotate(0,520.5,416.5)"/><rect x="527" y="410" width="13" height="13" transform="rotate(0,533.5,416.5)"/><rect x="566" y="410" width="13" height="13" transform="rotate(0,572.5,416.5)"/><rect x="579" y="410" width="13" height="13" transform="rotate(0,585.5,416.5)"/><rect x="20" y="423" width="13" height="13" transform="rotate(0,26.5,429.5)"/><rect x="33" y="423" width="13" height="13" transform="rotate(0,39.5,429.5)"/><rect x="46" y="423" width="13" height="13" transform="rotate(0,52.5,429.5)"/><rect x="59" y="423" width="13" height="13" transform="rotate(0,65.5,429.5)"/><rect x="72" y="423" width="13" height="13" transform="rotate(0,78.5,429.5)"/><rect x="85" y="423" width="13" height="13" transform="rotate(0,91.5,429.5)"/><rect x="137" y="423" width="13" height="13" transform="rotate(0,143.5,429.5)"/><rect x="150" y="423" width="13" height="13" transform="rotate(0,156.5,429.5)"/><rect x="176" y="423" width="13" height="13" transform="rotate(0,182.5,429.5)"/><rect x="189" y="423" width="13" height="13" transform="rotate(0,195.5,429.5)"/><rect x="202" y="423" width="13" height="13" transform="rotate(0,208.5,429.5)"/><rect x="228" y="423" width="13" height="13" transform="rotate(0,234.5,429.5)"/><rect x="241" y="423" width="13" height="13" transform="rotate(0,247.5,429.5)"/><rect x="267" y="423" width="13" height="13" transform="rotate(0,273.5,429.5)"/><rect x="293" y="423" width="13" height="13" transform="rotate(0,299.5,429.5)"/><rect x="319" y="423" width="13" height="13" transform="rotate(0,325.5,429.5)"/><rect x="371" y="423" width="13" height="13" transform="rotate(0,377.5,429.5)"/><rect x="397" y="423" width="13" height="13" transform="rotate(0,403.5,429.5)"/><rect x="410" y="423" width="13" height="13" transform="rotate(0,416.5,429.5)"/><rect x="449" y="423" width="13" height="13" transform="rotate(0,455.5,429.5)"/><rect x="462" y="423" width="13" height="13" transform="rotate(0,468.5,429.5)"/><rect x="514" y="423" width="13" height="13" transform="rotate(0,520.5,429.5)"/><rect x="527" y="423" width="13" height="13" transform="rotate(0,533.5,429.5)"/><rect x="540" y="423" width="13" height="13" transform="rotate(0,546.5,429.5)"/><rect x="33" y="436" width="13" height="13" transform="rotate(0,39.5,442.5)"/><rect x="137" y="436" width="13" height="13" transform="rotate(0,143.5,442.5)"/><rect x="176" y="436" width="13" height="13" transform="rotate(0,182.5,442.5)"/><rect x="215" y="436" width="13" height="13" transform="rotate(0,221.5,442.5)"/><rect x="228" y="436" width="13" height="13" transform="rotate(0,234.5,442.5)"/><rect x="254" y="436" width="13" height="13" transform="rotate(0,260.5,442.5)"/><rect x="267" y="436" width="13" height="13" transform="rotate(0,273.5,442.5)"/><rect x="293" y="436" width="13" height="13" transform="rotate(0,299.5,442.5)"/><rect x="306" y="436" width="13" height="13" transform="rotate(0,312.5,442.5)"/><rect x="332" y="436" width="13" height="13" transform="rotate(0,338.5,442.5)"/><rect x="358" y="436" width="13" height="13" transform="rotate(0,364.5,442.5)"/><rect x="410" y="436" width="13" height="13" transform="rotate(0,416.5,442.5)"/><rect x="423" y="436" width="13" height="13" transform="rotate(0,429.5,442.5)"/><rect x="475" y="436" width="13" height="13" transform="rotate(0,481.5,442.5)"/><rect x="501" y="436" width="13" height="13" transform="rotate(0,507.5,442.5)"/><rect x="540" y="436" width="13" height="13" transform="rotate(0,546.5,442.5)"/><rect x="566" y="436" width="13" height="13" transform="rotate(0,572.5,442.5)"/><rect x="579" y="436" width="13" height="13" transform="rotate(0,585.5,442.5)"/><rect x="59" y="449" width="13" height="13" transform="rotate(0,65.5,455.5)"/><rect x="85" y="449" width="13" height="13" transform="rotate(0,91.5,455.5)"/><rect x="98" y="449" width="13" height="13" transform="rotate(0,104.5,455.5)"/><rect x="111" y="449" width="13" height="13" transform="rotate(0,117.5,455.5)"/><rect x="124" y="449" width="13" height="13" transform="rotate(0,130.5,455.5)"/><rect x="150" y="449" width="13" height="13" transform="rotate(0,156.5,455.5)"/><rect x="163" y="449" width="13" height="13" transform="rotate(0,169.5,455.5)"/><rect x="202" y="449" width="13" height="13" transform="rotate(0,208.5,455.5)"/><rect x="254" y="449" width="13" height="13" transform="rotate(0,260.5,455.5)"/><rect x="280" y="449" width="13" height="13" transform="rotate(0,286.5,455.5)"/><rect x="293" y="449" width="13" height="13" transform="rotate(0,299.5,455.5)"/><rect x="306" y="449" width="13" height="13" transform="rotate(0,312.5,455.5)"/><rect x="449" y="449" width="13" height="13" transform="rotate(0,455.5,455.5)"/><rect x="475" y="449" width="13" height="13" transform="rotate(0,481.5,455.5)"/><rect x="488" y="449" width="13" height="13" transform="rotate(0,494.5,455.5)"/><rect x="501" y="449" width="13" height="13" transform="rotate(0,507.5,455.5)"/><rect x="514" y="449" width="13" height="13" transform="rotate(0,520.5,455.5)"/><rect x="553" y="449" width="13" height="13" transform="rotate(0,559.5,455.5)"/><rect x="579" y="449" width="13" height="13" transform="rotate(0,585.5,455.5)"/><rect x="20" y="462" width="13" height="13" transform="rotate(0,26.5,468.5)"/><rect x="33" y="462" width="13" height="13" transform="rotate(0,39.5,468.5)"/><rect x="46" y="462" width="13" height="13" transform="rotate(0,52.5,468.5)"/><rect x="59" y="462" width="13" height="13" transform="rotate(0,65.5,468.5)"/><rect x="98" y="462" width="13" height="13" transform="rotate(0,104.5,468.5)"/><rect x="137" y="462" width="13" height="13" transform="rotate(0,143.5,468.5)"/><rect x="150" y="462" width="13" height="13" transform="rotate(0,156.5,468.5)"/><rect x="189" y="462" width="13" height="13" transform="rotate(0,195.5,468.5)"/><rect x="202" y="462" width="13" height="13" transform="rotate(0,208.5,468.5)"/><rect x="241" y="462" width="13" height="13" transform="rotate(0,247.5,468.5)"/><rect x="254" y="462" width="13" height="13" transform="rotate(0,260.5,468.5)"/><rect x="280" y="462" width="13" height="13" transform="rotate(0,286.5,468.5)"/><rect x="293" y="462" width="13" height="13" transform="rotate(0,299.5,468.5)"/><rect x="371" y="462" width="13" height="13" transform="rotate(0,377.5,468.5)"/><rect x="397" y="462" width="13" height="13" transform="rotate(0,403.5,468.5)"/><rect x="410" y="462" width="13" height="13" transform="rotate(0,416.5,468.5)"/><rect x="449" y="462" width="13" height="13" transform="rotate(0,455.5,468.5)"/><rect x="462" y="462" width="13" height="13" transform="rotate(0,468.5,468.5)"/><rect x="514" y="462" width="13" height="13" transform="rotate(0,520.5,468.5)"/><rect x="527" y="462" width="13" height="13" transform="rotate(0,533.5,468.5)"/><rect x="540" y="462" width="13" height="13" transform="rotate(0,546.5,468.5)"/><rect x="566" y="462" width="13" height="13" transform="rotate(0,572.5,468.5)"/><rect x="7" y="475" width="13" height="13" transform="rotate(0,13.5,481.5)"/><rect x="46" y="475" width="13" height="13" transform="rotate(0,52.5,481.5)"/><rect x="59" y="475" width="13" height="13" transform="rotate(0,65.5,481.5)"/><rect x="85" y="475" width="13" height="13" transform="rotate(0,91.5,481.5)"/><rect x="215" y="475" width="13" height="13" transform="rotate(0,221.5,481.5)"/><rect x="228" y="475" width="13" height="13" transform="rotate(0,234.5,481.5)"/><rect x="254" y="475" width="13" height="13" transform="rotate(0,260.5,481.5)"/><rect x="267" y="475" width="13" height="13" transform="rotate(0,273.5,481.5)"/><rect x="280" y="475" width="13" height="13" transform="rotate(0,286.5,481.5)"/><rect x="293" y="475" width="13" height="13" transform="rotate(0,299.5,481.5)"/><rect x="306" y="475" width="13" height="13" transform="rotate(0,312.5,481.5)"/><rect x="319" y="475" width="13" height="13" transform="rotate(0,325.5,481.5)"/><rect x="371" y="475" width="13" height="13" transform="rotate(0,377.5,481.5)"/><rect x="384" y="475" width="13" height="13" transform="rotate(0,390.5,481.5)"/><rect x="423" y="475" width="13" height="13" transform="rotate(0,429.5,481.5)"/><rect x="449" y="475" width="13" height="13" transform="rotate(0,455.5,481.5)"/><rect x="475" y="475" width="13" height="13" transform="rotate(0,481.5,481.5)"/><rect x="488" y="475" width="13" height="13" transform="rotate(0,494.5,481.5)"/><rect x="501" y="475" width="13" height="13" transform="rotate(0,507.5,481.5)"/><rect x="514" y="475" width="13" height="13" transform="rotate(0,520.5,481.5)"/><rect x="527" y="475" width="13" height="13" transform="rotate(0,533.5,481.5)"/><rect x="540" y="475" width="13" height="13" transform="rotate(0,546.5,481.5)"/><rect x="566" y="475" width="13" height="13" transform="rotate(0,572.5,481.5)"/><rect x="579" y="475" width="13" height="13" transform="rotate(0,585.5,481.5)"/><rect x="111" y="488" width="13" height="13" transform="rotate(0,117.5,494.5)"/><rect x="124" y="488" width="13" height="13" transform="rotate(0,130.5,494.5)"/><rect x="137" y="488" width="13" height="13" transform="rotate(0,143.5,494.5)"/><rect x="150" y="488" width="13" height="13" transform="rotate(0,156.5,494.5)"/><rect x="267" y="488" width="13" height="13" transform="rotate(0,273.5,494.5)"/><rect x="319" y="488" width="13" height="13" transform="rotate(0,325.5,494.5)"/><rect x="332" y="488" width="13" height="13" transform="rotate(0,338.5,494.5)"/><rect x="345" y="488" width="13" height="13" transform="rotate(0,351.5,494.5)"/><rect x="449" y="488" width="13" height="13" transform="rotate(0,455.5,494.5)"/><rect x="475" y="488" width="13" height="13" transform="rotate(0,481.5,494.5)"/><rect x="527" y="488" width="13" height="13" transform="rotate(0,533.5,494.5)"/><rect x="566" y="488" width="13" height="13" transform="rotate(0,572.5,494.5)"/><rect x="579" y="488" width="13" height="13" transform="rotate(0,585.5,494.5)"/><rect x="137" y="501" width="13" height="13" transform="rotate(0,143.5,507.5)"/><rect x="150" y="501" width="13" height="13" transform="rotate(0,156.5,507.5)"/><rect x="176" y="501" width="13" height="13" transform="rotate(0,182.5,507.5)"/><rect x="189" y="501" width="13" height="13" transform="rotate(0,195.5,507.5)"/><rect x="202" y="501" width="13" height="13" transform="rotate(0,208.5,507.5)"/><rect x="215" y="501" width="13" height="13" transform="rotate(0,221.5,507.5)"/><rect x="228" y="501" width="13" height="13" transform="rotate(0,234.5,507.5)"/><rect x="241" y="501" width="13" height="13" transform="rotate(0,247.5,507.5)"/><rect x="254" y="501" width="13" height="13" transform="rotate(0,260.5,507.5)"/><rect x="267" y="501" width="13" height="13" transform="rotate(0,273.5,507.5)"/><rect x="293" y="501" width="13" height="13" transform="rotate(0,299.5,507.5)"/><rect x="319" y="501" width="13" height="13" transform="rotate(0,325.5,507.5)"/><rect x="384" y="501" width="13" height="13" transform="rotate(0,390.5,507.5)"/><rect x="397" y="501" width="13" height="13" transform="rotate(0,403.5,507.5)"/><rect x="410" y="501" width="13" height="13" transform="rotate(0,416.5,507.5)"/><rect x="423" y="501" width="13" height="13" transform="rotate(0,429.5,507.5)"/><rect x="449" y="501" width="13" height="13" transform="rotate(0,455.5,507.5)"/><rect x="475" y="501" width="13" height="13" transform="rotate(0,481.5,507.5)"/><rect x="501" y="501" width="13" height="13" transform="rotate(0,507.5,507.5)"/><rect x="527" y="501" width="13" height="13" transform="rotate(0,533.5,507.5)"/><rect x="540" y="501" width="13" height="13" transform="rotate(0,546.5,507.5)"/><rect x="553" y="501" width="13" height="13" transform="rotate(0,559.5,507.5)"/><rect x="111" y="514" width="13" height="13" transform="rotate(0,117.5,520.5)"/><rect x="124" y="514" width="13" height="13" transform="rotate(0,130.5,520.5)"/><rect x="137" y="514" width="13" height="13" transform="rotate(0,143.5,520.5)"/><rect x="163" y="514" width="13" height="13" transform="rotate(0,169.5,520.5)"/><rect x="176" y="514" width="13" height="13" transform="rotate(0,182.5,520.5)"/><rect x="215" y="514" width="13" height="13" transform="rotate(0,221.5,520.5)"/><rect x="228" y="514" width="13" height="13" transform="rotate(0,234.5,520.5)"/><rect x="267" y="514" width="13" height="13" transform="rotate(0,273.5,520.5)"/><rect x="319" y="514" width="13" height="13" transform="rotate(0,325.5,520.5)"/><rect x="345" y="514" width="13" height="13" transform="rotate(0,351.5,520.5)"/><rect x="358" y="514" width="13" height="13" transform="rotate(0,364.5,520.5)"/><rect x="371" y="514" width="13" height="13" transform="rotate(0,377.5,520.5)"/><rect x="410" y="514" width="13" height="13" transform="rotate(0,416.5,520.5)"/><rect x="423" y="514" width="13" height="13" transform="rotate(0,429.5,520.5)"/><rect x="475" y="514" width="13" height="13" transform="rotate(0,481.5,520.5)"/><rect x="527" y="514" width="13" height="13" transform="rotate(0,533.5,520.5)"/><rect x="566" y="514" width="13" height="13" transform="rotate(0,572.5,520.5)"/><rect x="137" y="527" width="13" height="13" transform="rotate(0,143.5,533.5)"/><rect x="150" y="527" width="13" height="13" transform="rotate(0,156.5,533.5)"/><rect x="189" y="527" width="13" height="13" transform="rotate(0,195.5,533.5)"/><rect x="215" y="527" width="13" height="13" transform="rotate(0,221.5,533.5)"/><rect x="228" y="527" width="13" height="13" transform="rotate(0,234.5,533.5)"/><rect x="254" y="527" width="13" height="13" transform="rotate(0,260.5,533.5)"/><rect x="267" y="527" width="13" height="13" transform="rotate(0,273.5,533.5)"/><rect x="280" y="527" width="13" height="13" transform="rotate(0,286.5,533.5)"/><rect x="293" y="527" width="13" height="13" transform="rotate(0,299.5,533.5)"/><rect x="306" y="527" width="13" height="13" transform="rotate(0,312.5,533.5)"/><rect x="319" y="527" width="13" height="13" transform="rotate(0,325.5,533.5)"/><rect x="384" y="527" width="13" height="13" transform="rotate(0,390.5,533.5)"/><rect x="397" y="527" width="13" height="13" transform="rotate(0,403.5,533.5)"/><rect x="410" y="527" width="13" height="13" transform="rotate(0,416.5,533.5)"/><rect x="423" y="527" width="13" height="13" transform="rotate(0,429.5,533.5)"/><rect x="436" y="527" width="13" height="13" transform="rotate(0,442.5,533.5)"/><rect x="449" y="527" width="13" height="13" transform="rotate(0,455.5,533.5)"/><rect x="462" y="527" width="13" height="13" transform="rotate(0,468.5,533.5)"/><rect x="475" y="527" width="13" height="13" transform="rotate(0,481.5,533.5)"/><rect x="488" y="527" width="13" height="13" transform="rotate(0,494.5,533.5)"/><rect x="501" y="527" width="13" height="13" transform="rotate(0,507.5,533.5)"/><rect x="514" y="527" width="13" height="13" transform="rotate(0,520.5,533.5)"/><rect x="527" y="527" width="13" height="13" transform="rotate(0,533.5,533.5)"/><rect x="540" y="527" width="13" height="13" transform="rotate(0,546.5,533.5)"/><rect x="111" y="540" width="13" height="13" transform="rotate(0,117.5,546.5)"/><rect x="163" y="540" width="13" height="13" transform="rotate(0,169.5,546.5)"/><rect x="202" y="540" width="13" height="13" transform="rotate(0,208.5,546.5)"/><rect x="228" y="540" width="13" height="13" transform="rotate(0,234.5,546.5)"/><rect x="267" y="540" width="13" height="13" transform="rotate(0,273.5,546.5)"/><rect x="293" y="540" width="13" height="13" transform="rotate(0,299.5,546.5)"/><rect x="306" y="540" width="13" height="13" transform="rotate(0,312.5,546.5)"/><rect x="345" y="540" width="13" height="13" transform="rotate(0,351.5,546.5)"/><rect x="423" y="540" width="13" height="13" transform="rotate(0,429.5,546.5)"/><rect x="436" y="540" width="13" height="13" transform="rotate(0,442.5,546.5)"/><rect x="462" y="540" width="13" height="13" transform="rotate(0,468.5,546.5)"/><rect x="475" y="540" width="13" height="13" transform="rotate(0,481.5,546.5)"/><rect x="501" y="540" width="13" height="13" transform="rotate(0,507.5,546.5)"/><rect x="514" y="540" width="13" height="13" transform="rotate(0,520.5,546.5)"/><rect x="527" y="540" width="13" height="13" transform="rotate(0,533.5,546.5)"/><rect x="553" y="540" width="13" height="13" transform="rotate(0,559.5,546.5)"/><rect x="566" y="540" width="13" height="13" transform="rotate(0,572.5,546.5)"/><rect x="150" y="553" width="13" height="13" transform="rotate(0,156.5,559.5)"/><rect x="189" y="553" width="13" height="13" transform="rotate(0,195.5,559.5)"/><rect x="215" y="553" width="13" height="13" transform="rotate(0,221.5,559.5)"/><rect x="228" y="553" width="13" height="13" transform="rotate(0,234.5,559.5)"/><rect x="241" y="553" width="13" height="13" transform="rotate(0,247.5,559.5)"/><rect x="254" y="553" width="13" height="13" transform="rotate(0,260.5,559.5)"/><rect x="267" y="553" width="13" height="13" transform="rotate(0,273.5,559.5)"/><rect x="293" y="553" width="13" height="13" transform="rotate(0,299.5,559.5)"/><rect x="306" y="553" width="13" height="13" transform="rotate(0,312.5,559.5)"/><rect x="319" y="553" width="13" height="13" transform="rotate(0,325.5,559.5)"/><rect x="332" y="553" width="13" height="13" transform="rotate(0,338.5,559.5)"/><rect x="371" y="553" width="13" height="13" transform="rotate(0,377.5,559.5)"/><rect x="384" y="553" width="13" height="13" transform="rotate(0,390.5,559.5)"/><rect x="410" y="553" width="13" height="13" transform="rotate(0,416.5,559.5)"/><rect x="423" y="553" width="13" height="13" transform="rotate(0,429.5,559.5)"/><rect x="475" y="553" width="13" height="13" transform="rotate(0,481.5,559.5)"/><rect x="501" y="553" width="13" height="13" transform="rotate(0,507.5,559.5)"/><rect x="514" y="553" width="13" height="13" transform="rotate(0,520.5,559.5)"/><rect x="527" y="553" width="13" height="13" transform="rotate(0,533.5,559.5)"/><rect x="566" y="553" width="13" height="13" transform="rotate(0,572.5,559.5)"/><rect x="579" y="553" width="13" height="13" transform="rotate(0,585.5,559.5)"/><rect x="137" y="566" width="13" height="13" transform="rotate(0,143.5,572.5)"/><rect x="150" y="566" width="13" height="13" transform="rotate(0,156.5,572.5)"/><rect x="176" y="566" width="13" height="13" transform="rotate(0,182.5,572.5)"/><rect x="202" y="566" width="13" height="13" transform="rotate(0,208.5,572.5)"/><rect x="228" y="566" width="13" height="13" transform="rotate(0,234.5,572.5)"/><rect x="241" y="566" width="13" height="13" transform="rotate(0,247.5,572.5)"/><rect x="267" y="566" width="13" height="13" transform="rotate(0,273.5,572.5)"/><rect x="293" y="566" width="13" height="13" transform="rotate(0,299.5,572.5)"/><rect x="306" y="566" width="13" height="13" transform="rotate(0,312.5,572.5)"/><rect x="319" y="566" width="13" height="13" transform="rotate(0,325.5,572.5)"/><rect x="332" y="566" width="13" height="13" transform="rotate(0,338.5,572.5)"/><rect x="345" y="566" width="13" height="13" transform="rotate(0,351.5,572.5)"/><rect x="371" y="566" width="13" height="13" transform="rotate(0,377.5,572.5)"/><rect x="384" y="566" width="13" height="13" transform="rotate(0,390.5,572.5)"/><rect x="436" y="566" width="13" height="13" transform="rotate(0,442.5,572.5)"/><rect x="462" y="566" width="13" height="13" transform="rotate(0,468.5,572.5)"/><rect x="514" y="566" width="13" height="13" transform="rotate(0,520.5,572.5)"/><rect x="527" y="566" width="13" height="13" transform="rotate(0,533.5,572.5)"/><rect x="111" y="579" width="13" height="13" transform="rotate(0,117.5,585.5)"/><rect x="124" y="579" width="13" height="13" transform="rotate(0,130.5,585.5)"/><rect x="137" y="579" width="13" height="13" transform="rotate(0,143.5,585.5)"/><rect x="150" y="579" width="13" height="13" transform="rotate(0,156.5,585.5)"/><rect x="163" y="579" width="13" height="13" transform="rotate(0,169.5,585.5)"/><rect x="189" y="579" width="13" height="13" transform="rotate(0,195.5,585.5)"/><rect x="202" y="579" width="13" height="13" transform="rotate(0,208.5,585.5)"/><rect x="228" y="579" width="13" height="13" transform="rotate(0,234.5,585.5)"/><rect x="254" y="579" width="13" height="13" transform="rotate(0,260.5,585.5)"/><rect x="293" y="579" width="13" height="13" transform="rotate(0,299.5,585.5)"/><rect x="319" y="579" width="13" height="13" transform="rotate(0,325.5,585.5)"/><rect x="332" y="579" width="13" height="13" transform="rotate(0,338.5,585.5)"/><rect x="371" y="579" width="13" height="13" transform="rotate(0,377.5,585.5)"/><rect x="397" y="579" width="13" height="13" transform="rotate(0,403.5,585.5)"/><rect x="410" y="579" width="13" height="13" transform="rotate(0,416.5,585.5)"/><rect x="436" y="579" width="13" height="13" transform="rotate(0,442.5,585.5)"/><rect x="462" y="579" width="13" height="13" transform="rotate(0,468.5,585.5)"/><rect x="488" y="579" width="13" height="13" transform="rotate(0,494.5,585.5)"/><rect x="501" y="579" width="13" height="13" transform="rotate(0,507.5,585.5)"/><rect x="514" y="579" width="13" height="13" transform="rotate(0,520.5,585.5)"/><rect x="553" y="579" width="13" height="13" transform="rotate(0,559.5,585.5)"/><rect x="566" y="579" width="13" height="13" transform="rotate(0,572.5,585.5)"/></clipPath><clipPath id="clip-path-corners-square-color-0-0-39"><path clip-rule="evenodd" d="M 7 7v 91h 91v -91zM 20 20h 65v 65h -65z" transform="rotate(0,52.5,52.5)"/></clipPath><clipPath id="clip-path-corners-dot-color-0-0-39"><rect x="33" y="33" width="39" height="39" transform="rotate(0,52.5,52.5)"/></clipPath><clipPath id="clip-path-corners-square-color-1-0-39"><path clip-rule="evenodd" d="M 501 7v 91h 91v -91zM 514 20h 65v 65h -65z" transform="rotate(90,546.5,52.5)"/></clipPath><clipPath id="clip-path-corners-dot-color-1-0-39"><rect x="527" y="33" width="39" height="39" transform="rotate(90,546.5,52.5)"/></clipPath><clipPath id="clip-path-corners-square-color-0-1-39"><path clip-rule="evenodd" d="M 7 501v 91h 91v -91zM 20 514h 65v 65h -65z" transform="rotate(-90,52.5,546.5)"/></clipPath><clipPath id="clip-path-corners-dot-color-0-1-39"><rect x="33" y="527" width="39" height="39" transform="rotate(-90,52.5,546.5)"/></clipPath></defs><rect x="0" y="0" height="600" width="600" clip-path="url('#clip-path-background-color-39')" fill="#ffffff"/><rect x="0" y="0" height="600" width="600" clip-path="url('#clip-path-dot-color-39')" fill="#000000"/><rect x="7" y="7" height="91" width="91" clip-path="url('#clip-path-corners-square-color-0-0-39')" fill="#000000"/><rect x="33" y="33" height="39" width="39" clip-path="url('#clip-path-corners-dot-color-0-0-39')" fill="#000000"/><rect x="501" y="7" height="91" width="91" clip-path="url('#clip-path-corners-square-color-1-0-39')" fill="#000000"/><rect x="527" y="33" height="39" width="39" clip-path="url('#clip-path-corners-dot-color-1-0-39')" fill="#000000"/><rect x="7" y="501" height="91" width="91" clip-path="url('#clip-path-corners-square-color-0-1-39')" fill="#000000"/><rect x="33" y="527" height="39" width="39" clip-path="url('#clip-path-corners-dot-color-0-1-39')" fill="#000000"/></svg>